<svg width="22" height="20" viewBox="0 0 22 20" fill="none" xmlns="http://www.w3.org/2000/svg">
<path d="M11.01 4.49988C13.77 4.49988 16.01 6.73988 16.01 9.49988C16.01 10.1499 15.88 10.7599 15.65 11.3299L18.57 14.2499C20.08 12.9899 21.27 11.3599 22 9.49988C20.27 5.10988 16 1.99988 11 1.99988C9.60001 1.99988 8.26001 2.24988 7.02001 2.69988L9.18001 4.85988C9.75001 4.62988 10.36 4.49988 11.01 4.49988ZM1.01001 1.76988L3.29001 4.04988L3.75001 4.50988C2.09001 5.79988 0.79001 7.51988 0.0100098 9.49988C1.74001 13.8899 6.01001 16.9999 11.01 16.9999C12.56 16.9999 14.04 16.6999 15.39 16.1599L15.81 16.5799L18.74 19.4999L20.01 18.2299L2.28001 0.499878L1.01001 1.76988ZM6.54001 7.29988L8.09001 8.84988C8.04001 9.05988 8.01001 9.27988 8.01001 9.49988C8.01001 11.1599 9.35001 12.4999 11.01 12.4999C11.23 12.4999 11.45 12.4699 11.66 12.4199L13.21 13.9699C12.54 14.2999 11.8 14.4999 11.01 14.4999C8.25001 14.4999 6.01001 12.2599 6.01001 9.49988C6.01001 8.70988 6.21001 7.96988 6.54001 7.29988ZM10.85 6.51988L14 9.66988L14.02 9.50988C14.02 7.84988 12.68 6.50988 11.02 6.50988L10.85 6.51988Z" fill="#98A2B3"/>
</svg>
