<svg width="22" height="16" viewBox="0 0 22 16" fill="none" xmlns="http://www.w3.org/2000/svg">
<path d="M11 0.577042C6 0.577042 1.73 3.68704 0 8.07704C1.73 12.467 6 15.577 11 15.577C16 15.577 20.27 12.467 22 8.07704C20.27 3.68704 16 0.577042 11 0.577042ZM11 13.077C8.24 13.077 6 10.837 6 8.07704C6 5.31704 8.24 3.07704 11 3.07704C13.76 3.07704 16 5.31704 16 8.07704C16 10.837 13.76 13.077 11 13.077ZM11 5.07704C9.34 5.07704 8 6.41704 8 8.07704C8 9.73704 9.34 11.077 11 11.077C12.66 11.077 14 9.73704 14 8.07704C14 6.41704 12.66 5.07704 11 5.07704Z" fill="#667085"/>
</svg>
